<?xml version="1.0" encoding="UTF-8"?>
<!-- Created with Inkscape (http://www.inkscape.org/) -->
<svg width="15.828mm" height="5.0481mm" version="1.1" viewBox="0 0 15.828 5.0481" xmlns="http://www.w3.org/2000/svg" xmlns:cc="http://creativecommons.org/ns#" xmlns:dc="http://purl.org/dc/elements/1.1/" xmlns:rdf="http://www.w3.org/1999/02/22-rdf-syntax-ns#">
 <metadata>
  <rdf:RDF>
   <cc:Work rdf:about="">
    <dc:format>image/svg+xml</dc:format>
    <dc:type rdf:resource="http://purl.org/dc/dcmitype/StillImage"/>
    <dc:title/>
   </cc:Work>
  </rdf:RDF>
 </metadata>
 <g transform="translate(-105.14 -136.12)">
  <g fill="#000000" font-family="sans-serif" font-size="3.5278px" letter-spacing="0px" stroke-width=".26458" word-spacing="0px">
   <text x="77.320541" y="100.48299" style="line-height:1.25" xml:space="preserve"><tspan x="77.320541" y="100.48299" stroke-width=".26458">DevUp</tspan></text>
   <text x="74.789406" y="100.89341" style="line-height:1.25" xml:space="preserve"><tspan x="74.789406" y="100.89341" fill="#ff0000" font-size="5.2917px" stroke-width=".26458">{</tspan></text>
   <text x="88.152885" y="100.86" style="line-height:1.25" xml:space="preserve"><tspan x="88.152885" y="100.86" fill="#ff0000" font-size="5.2917px" stroke-width=".26458">}</tspan></text>
   <text x="77.348297" y="109.07472" style="line-height:1.25" xml:space="preserve"><tspan x="77.348297" y="109.07472" stroke-width=".26458">DevUp</tspan></text>
  </g>
  <g transform="translate(23.34 26.347)" aria-label="{">
   <path d="m61.641 84.133-7.6754 7.4e-4c-0.30834 3e-5 -0.55897-0.08613-0.75189-0.25838-0.1912-0.17053-0.2868-0.41772-0.2868-0.74156v-0.38499c0-0.29111-0.07149-0.51849-0.21446-0.68213-0.14297-0.16536-0.36174-0.24805-0.65629-0.24805h-0.13178v-0.40308h0.13178c0.29456 0 0.51332-0.08182 0.65629-0.24546 0.14297-0.16536 0.21446-0.3936 0.21446-0.68471v-0.38499c0-0.32384 0.0956-0.57102 0.2868-0.74156 0.19292-0.17226 0.44356-0.25838 0.75189-0.25838h0.38757v0.35657h-0.29456c-0.23427 0-0.4048 0.05426-0.5116 0.16278-0.10508 0.10852-0.15761 0.28336-0.15761 0.52452v0.45217c0 0.23943-0.06632 0.44097-0.19896 0.60461-0.13264 0.16192-0.31695 0.29025-0.55294 0.38499v0.06201c0.23599 0.09474 0.4203 0.22393 0.55294 0.38757 0.13264 0.16192 0.19896 0.3626 0.19896 0.60203v0.45217c0 0.24116 0.05254 0.416 0.15761 0.52452 0.1068 0.10852 0.27733 0.16278 0.5116 0.16278l7.5824-0.01033z" fill="#f00" stroke-width=".26458"/>
  </g>
  <g font-family="sans-serif" font-size="3.5278px" letter-spacing="0px" word-spacing="0px" style="line-height:1.25" aria-label="}">
   <path d="m91.093 108.17h-0.13178c-0.29455 0-0.51332 0.0827-0.65629 0.24805-0.14297 0.16364-0.21446 0.39101-0.21446 0.68213v0.38498c0 0.32384-0.0965 0.57103-0.28938 0.74156-0.19121 0.17226-0.44098 0.25838-0.74931 0.25838h-0.38758v-0.35656h0.29456c0.23427 0 0.40394-0.0543 0.50901-0.16278 0.1068-0.10853 0.1602-0.28336 0.1602-0.52452v-0.45217c0-0.23943 0.0663-0.44011 0.19895-0.60203 0.13264-0.16364 0.31695-0.29283 0.55294-0.38757v-0.062c-0.23599-0.0947-0.4203-0.22307-0.55294-0.38499-0.13263-0.16364-0.19895-0.36518-0.19895-0.60462v-0.45216c0-0.24116-0.0534-0.416-0.1602-0.52452-0.10507-0.10852-0.27474-0.16278-0.50901-0.16278l-7.9486-1e-3v-0.36616l8.0416 0.0111c0.30833 4.2e-4 0.5581 0.0861 0.74931 0.25838 0.19292 0.17053 0.28938 0.41772 0.28938 0.74156v0.38499c0 0.29111 0.0715 0.51934 0.21446 0.68471 0.14297 0.16364 0.36174 0.24546 0.65629 0.24546h0.13178z" fill="#f00" stroke-width=".26458"/>
   <g>
    <text x="54.038292" y="92.451714" fill="#000000" font-family="sans-serif" font-size="3.5278px" letter-spacing="0px" stroke-width=".26458" word-spacing="0px" style="line-height:1.25" xml:space="preserve"><tspan x="54.038292" y="92.451714" stroke-width=".26458">DevUp</tspan></text>
    <g transform="translate(.030018 9.7241)" aria-label="{">
     <path d="m59.667 84.137-5.7012-0.0031c-0.30834-1.68e-4 -0.55897-0.08613-0.75189-0.25838-0.1912-0.17053-0.2868-0.41772-0.2868-0.74156v-0.38499c0-0.29111-0.07149-0.51849-0.21446-0.68213-0.14297-0.16536-0.36174-0.24805-0.65629-0.24805h-0.13178v-0.40308h0.13178c0.29456 0 0.51332-0.08182 0.65629-0.24546 0.14297-0.16536 0.21446-0.3936 0.21446-0.68471v-0.38501c0-0.32384 0.0956-0.57102 0.2868-0.74156 0.19292-0.17226 0.44356-0.25838 0.75189-0.25838h0.38757v0.35657h-0.29456c-0.23427 0-0.4048 0.05426-0.5116 0.16278-0.10508 0.10852-0.15761 0.28336-0.15761 0.52452v0.45217c0 0.23943-0.06632 0.44097-0.19896 0.60461-0.13264 0.16192-0.31695 0.29025-0.55294 0.38499v0.06201c0.23599 0.09474 0.4203 0.22393 0.55294 0.38757 0.13264 0.16192 0.19896 0.3626 0.19896 0.60203v0.45217c0 0.24116 0.05254 0.416 0.15761 0.52452 0.1068 0.10852 0.27733 0.16278 0.5116 0.16278l5.6082-0.01828z" fill="#f00" stroke-width=".26458"/>
    </g>
    <path d="m67.783 91.543h-0.13178c-0.29456 0-0.51332 0.08268-0.65629 0.24805-0.14297 0.16364-0.21446 0.39102-0.21446 0.68213v0.38499c0 0.32384-0.09646 0.57102-0.28939 0.74156-0.1912 0.17226-0.44097 0.25838-0.74931 0.25838h-0.38757v-0.35657h0.29456c0.23427 0 0.40394-0.05426 0.50901-0.16278 0.1068-0.10852 0.1602-0.28336 0.1602-0.52452v-0.45217c0-0.23943 0.06632-0.44011 0.19895-0.60203 0.13264-0.16364 0.31695-0.29283 0.55294-0.38757v-0.06201c-0.23599-0.09474-0.4203-0.22307-0.55294-0.38499-0.13264-0.16364-0.19895-0.36518-0.19895-0.60462v-0.45217c0-0.24116-0.0534-0.416-0.1602-0.52452-0.10508-0.10852-0.27475-0.16278-0.50901-0.16278l-5.9517 0.0024v-0.37022l6.0448 0.01125c0.30834 5.74e-4 0.5581 0.08613 0.74931 0.25838 0.19292 0.17053 0.28939 0.41772 0.28939 0.74156v0.38499c0 0.29111 0.07149 0.51935 0.21446 0.68471 0.14297 0.16364 0.36174 0.24546 0.65629 0.24546h0.13178z" fill="#f00"/>
    <text x="77.556824" y="117.12289" fill="#000000" font-family="sans-serif" font-size="3.5278px" letter-spacing="0px" stroke-width=".26458" word-spacing="0px" style="line-height:1.25" xml:space="preserve"><tspan x="77.556824" y="117.12289" stroke-width=".26458">DevUp</tspan></text>
    <g transform="translate(23.549 34.395)" aria-label="{">
     <path d="m57.365 84.137-3.3996-0.0031c-0.30834-2.83e-4 -0.55897-0.08613-0.75189-0.25838-0.1912-0.17053-0.2868-0.41772-0.2868-0.74156v-0.38499c0-0.29111-0.07149-0.51849-0.21446-0.68213-0.14297-0.16536-0.36174-0.24805-0.65629-0.24805h-0.13178v-0.40308h0.13178c0.29456 0 0.51332-0.08182 0.65629-0.24546 0.14297-0.16536 0.21446-0.3936 0.21446-0.68471v-0.38501c0-0.32384 0.0956-0.57102 0.2868-0.74156 0.19292-0.17226 0.44356-0.25838 0.75189-0.25838h0.38757v0.35657h-0.29456c-0.23427 0-0.4048 0.05426-0.5116 0.16278-0.10508 0.10852-0.15761 0.28336-0.15761 0.52452v0.45217c0 0.23943-0.06632 0.44097-0.19896 0.60461-0.13264 0.16192-0.31695 0.29025-0.55294 0.38499v0.06201c0.23599 0.09474 0.4203 0.22393 0.55294 0.38757 0.13264 0.16192 0.19896 0.3626 0.19896 0.60203v0.45217c0 0.24116 0.05254 0.416 0.15761 0.52452 0.1068 0.10852 0.27733 0.16278 0.5116 0.16278l3.2947-0.01828z" fill="#f00" stroke-width=".26458"/>
    </g>
    <path d="m91.301 116.21h-0.13178c-0.29456 0-0.51332 0.0827-0.65629 0.24805-0.14297 0.16364-0.21446 0.39102-0.21446 0.68213v0.38499c0 0.32384-0.09646 0.57102-0.28939 0.74156-0.1912 0.17225-0.44097 0.25838-0.74931 0.25838h-0.38757v-0.35657h0.29456c0.23427 0 0.40394-0.0543 0.50901-0.16278 0.1068-0.10852 0.1602-0.28336 0.1602-0.52452v-0.45217c0-0.23943 0.06632-0.44011 0.19895-0.60203 0.13264-0.16364 0.31695-0.29283 0.55294-0.38757v-0.062c-0.23599-0.0947-0.4203-0.22307-0.55294-0.38499-0.13264-0.16364-0.19895-0.36518-0.19895-0.60461v-0.45217c0-0.24116-0.0534-0.416-0.1602-0.52452-0.10508-0.10852-0.27475-0.16278-0.50901-0.16278l-3.2587 2e-3 -6.44e-4 -0.37022 3.3523 0.0112c0.30834 1e-3 0.5581 0.0861 0.74931 0.25838 0.19292 0.17054 0.28939 0.41772 0.28939 0.74156v0.38499c0 0.29111 0.07149 0.51935 0.21446 0.68471 0.14297 0.16365 0.36174 0.24547 0.65629 0.24547h0.13178z" fill="#f00"/>
    <text x="77.702652" y="125.66249" fill="#000000" font-family="sans-serif" font-size="3.5278px" letter-spacing="0px" stroke-width=".26458" word-spacing="0px" style="line-height:1.25" xml:space="preserve"><tspan x="77.702652" y="125.66249" stroke-width=".26458">DevUp</tspan></text>
    <g transform="translate(23.694 42.935)" aria-label="{">
     <path d="m59.667 84.137-5.7012-0.0031c-0.30834-1.68e-4 -0.55897-0.08613-0.75189-0.25838-0.1912-0.17053-0.2868-0.41772-0.2868-0.74156v-0.38499c0-0.29111-0.07149-0.51849-0.21446-0.68213-0.14297-0.16536-0.36174-0.24805-0.65629-0.24805h-0.13178v-0.40308h0.13178c0.29456 0 0.51332-0.08182 0.65629-0.24546 0.14297-0.16536 0.21446-0.3936 0.21446-0.68471v-0.38501c0-0.32384 0.0956-0.57102 0.2868-0.74156 0.19292-0.17226 0.44356-0.25838 0.75189-0.25838h0.38757v0.35657h-0.29456c-0.23427 0-0.4048 0.05426-0.5116 0.16278-0.10508 0.10852-0.15761 0.28336-0.15761 0.52452v0.45217c0 0.23943-0.06632 0.44097-0.19896 0.60461-0.13264 0.16192-0.31695 0.29025-0.55294 0.38499v0.06201c0.23599 0.09474 0.4203 0.22393 0.55294 0.38757 0.13264 0.16192 0.19896 0.3626 0.19896 0.60203v0.45217c0 0.24116 0.05254 0.416 0.15761 0.52452 0.1068 0.10852 0.27733 0.16278 0.5116 0.16278l5.6082-0.01828z" fill="#f00" stroke-width=".26458"/>
    </g>
    <path d="m91.447 124.75h-0.13178c-0.29456 0-0.51332 0.0827-0.65629 0.24805-0.14297 0.16364-0.21446 0.39102-0.21446 0.68213v0.38499c0 0.32384-0.09646 0.57102-0.28939 0.74156-0.1912 0.17225-0.44097 0.25838-0.74931 0.25838h-0.38757v-0.35657h0.29456c0.23427 0 0.40394-0.0543 0.50901-0.16278 0.1068-0.10852 0.1602-0.28336 0.1602-0.52452v-0.45217c0-0.23943 0.06632-0.44011 0.19895-0.60203 0.13264-0.16364 0.31695-0.29283 0.55294-0.38757v-0.062c-0.23599-0.0947-0.4203-0.22307-0.55294-0.38499-0.13264-0.16364-0.19895-0.36518-0.19895-0.60461v-0.45217c0-0.24116-0.0534-0.416-0.1602-0.52452-0.10508-0.10852-0.27475-0.16278-0.50901-0.16278l-5.9517 2e-3v-0.37022l6.0448 0.0113c0.30834 5.8e-4 0.5581 0.0861 0.74931 0.25838 0.19292 0.17054 0.28939 0.41772 0.28939 0.74156v0.38499c0 0.29111 0.07149 0.51935 0.21446 0.68471 0.14297 0.16365 0.36174 0.24547 0.65629 0.24547h0.13178z" fill="#f00"/>
    <text x="84.10611" y="139.28941" fill="#535d6c" font-family="sans-serif" font-size="3.5278px" letter-spacing="0px" stroke-width=".26458" word-spacing="0px" style="line-height:1.25" xml:space="preserve"><tspan x="84.10611" y="139.28941" fill="#535d6c" stroke-width=".26458">DevUp</tspan></text>
    <g transform="translate(30.098 56.562)" fill="#2ad4ff" aria-label="{">
     <path d="m59.667 84.137-5.7012-0.0031c-0.30834-1.68e-4 -0.55897-0.08613-0.75189-0.25838-0.1912-0.17053-0.2868-0.41772-0.2868-0.74156v-0.38499c0-0.29111-0.07149-0.51849-0.21446-0.68213-0.14297-0.16536-0.36174-0.24805-0.65629-0.24805h-0.13178v-0.40308h0.13178c0.29456 0 0.51332-0.08182 0.65629-0.24546 0.14297-0.16536 0.21446-0.3936 0.21446-0.68471v-0.38501c0-0.32384 0.0956-0.57102 0.2868-0.74156 0.19292-0.17226 0.44356-0.25838 0.75189-0.25838h0.38757v0.35657h-0.29456c-0.23427 0-0.4048 0.05426-0.5116 0.16278-0.10508 0.10852-0.15761 0.28336-0.15761 0.52452v0.45217c0 0.23943-0.06632 0.44097-0.19896 0.60461-0.13264 0.16192-0.31695 0.29025-0.55294 0.38499v0.06201c0.23599 0.09474 0.4203 0.22393 0.55294 0.38757 0.13264 0.16192 0.19896 0.3626 0.19896 0.60203v0.45217c0 0.24116 0.05254 0.416 0.15761 0.52452 0.1068 0.10852 0.27733 0.16278 0.5116 0.16278l5.6082-0.01828z" fill="#2ad4ff" stroke-width=".26458"/>
    </g>
    <path d="m97.85 138.38h-0.13177c-0.29456 0-0.51332 0.0827-0.6563 0.24805-0.14297 0.16364-0.21445 0.39102-0.21445 0.68213v0.38499c0 0.32384-0.0965 0.57102-0.28939 0.74156-0.1912 0.17225-0.44097 0.25838-0.74931 0.25838h-0.38757v-0.35657h0.29456c0.23427 0 0.40394-0.0543 0.50901-0.16278 0.10679-0.10852 0.16019-0.28336 0.16019-0.52452v-0.45217c0-0.23943 0.0663-0.44011 0.19896-0.60203 0.13263-0.16364 0.31695-0.29283 0.55294-0.38757v-0.062c-0.23599-0.0947-0.42031-0.22307-0.55294-0.38499-0.13264-0.16364-0.19896-0.36518-0.19896-0.60461v-0.45217c0-0.24116-0.0534-0.416-0.16019-0.52452-0.10507-0.10852-0.27475-0.16278-0.50901-0.16278l-5.9517 2e-3v-0.37022l6.0448 0.0113c0.30834 5.8e-4 0.55811 0.0861 0.74931 0.25838 0.19292 0.17054 0.28939 0.41772 0.28939 0.74156v0.38499c0 0.29111 0.0715 0.51935 0.21445 0.68471 0.14298 0.16365 0.36174 0.24547 0.6563 0.24547h0.13177z" fill="#2ad4ff"/>
    <text x="100.85369" y="108.78931" fill="#000000" font-family="sans-serif" font-size="3.5278px" letter-spacing="0px" stroke-width=".26458" word-spacing="0px" style="line-height:1.25" xml:space="preserve"><tspan x="100.85369" y="108.78931" stroke-width=".26458">DevUp</tspan></text>
    <g transform="translate(46.845 26.062)" aria-label="{">
     <path d="m61.707 84.137-7.742-0.0031c-0.30834-1.23e-4 -0.55897-0.08613-0.75189-0.25838-0.1912-0.17053-0.2868-0.41772-0.2868-0.74156v-0.38499c0-0.29111-0.07149-0.51849-0.21446-0.68213-0.14297-0.16536-0.36174-0.24805-0.65629-0.24805h-0.13178v-0.40308h0.13178c0.29456 0 0.51332-0.08182 0.65629-0.24546 0.14297-0.16536 0.21446-0.3936 0.21446-0.68471v-0.38501c0-0.32384 0.0956-0.57102 0.2868-0.74156 0.19292-0.17226 0.44356-0.25838 0.75189-0.25838h0.38757v0.35657h-0.29456c-0.23427 0-0.4048 0.05426-0.5116 0.16278-0.10508 0.10852-0.15761 0.28336-0.15761 0.52452v0.45217c0 0.23943-0.06632 0.44097-0.19896 0.60461-0.13264 0.16192-0.31695 0.29025-0.55294 0.38499v0.06201c0.23599 0.09474 0.4203 0.22393 0.55294 0.38757 0.13264 0.16192 0.19896 0.3626 0.19896 0.60203v0.45217c0 0.24116 0.05254 0.416 0.15761 0.52452 0.1068 0.10852 0.27733 0.16278 0.5116 0.16278l7.7714-0.01828z" fill="#f00" stroke-width=".26458"/>
    </g>
    <path d="m114.6 107.88h-0.13177c-0.29456 0-0.51332 0.0827-0.65629 0.24805-0.14297 0.16364-0.21446 0.39101-0.21446 0.68213v0.38498c0 0.32384-0.0965 0.57103-0.28939 0.74156-0.1912 0.17226-0.44097 0.25838-0.7493 0.25838l-0.55644 3e-3 -0.0478-0.37794 0.51118-0.0113c0.23421-5e-3 0.40393-0.0247 0.50901-0.13325 0.1068-0.10852 0.1602-0.28336 0.1602-0.52452v-0.45217c0-0.23943 0.0663-0.44011 0.19895-0.60203 0.13264-0.16364 0.31695-0.29283 0.55294-0.38757v-0.062c-0.23599-0.0947-0.4203-0.22307-0.55294-0.38499-0.13264-0.16364-0.19895-0.36518-0.19895-0.60461v-0.45217c0-0.24116-0.0534-0.416-0.1602-0.52452-0.10507-0.10849-0.27475-0.16275-0.50901-0.16275l-0.35297 2e-3v-0.37022l0.44599 0.0113c0.30823 8e-3 0.5581 0.0861 0.7493 0.25838 0.19293 0.17053 0.28939 0.41772 0.28939 0.74156v0.38499c0 0.29111 0.0715 0.51934 0.21446 0.68471 0.14297 0.16364 0.36173 0.24546 0.65629 0.24546h0.13177z" fill="#f00"/>
    <path d="m111.95 109.82-4.1821 2.497 0.78233-2.1191h-0.3713l-1.1005 2.9413 4.9193-2.9413z" color="#000000" color-rendering="auto" dominant-baseline="auto" fill="#f00" image-rendering="auto" shape-rendering="auto" solid-color="#000000" style="font-feature-settings:normal;font-variant-alternates:normal;font-variant-caps:normal;font-variant-ligatures:normal;font-variant-numeric:normal;font-variant-position:normal;isolation:auto;mix-blend-mode:normal;shape-padding:0;text-decoration-color:#000000;text-decoration-line:none;text-decoration-style:solid;text-indent:0;text-orientation:mixed;text-transform:none;white-space:normal"/>
    <text x="84.960312" y="150.28897" fill="#535d6c" font-family="sans-serif" font-size="3.5278px" letter-spacing="0px" stroke-width=".26458" word-spacing="0px" style="line-height:1.25" xml:space="preserve"><tspan x="84.960312" y="150.28897" fill="#535d6c" stroke-width=".26458">Dev</tspan></text>
    <g transform="translate(30.415 67.386)" fill="#2ad4ff" aria-label="{">
     <path d="m59.667 84.137-5.7012-0.0031c-0.30834-1.68e-4 -0.55897-0.08613-0.75189-0.25838-0.1912-0.17053-0.2868-0.41772-0.2868-0.74156v-0.38499c0-0.29111-0.07149-0.51849-0.21446-0.68213-0.14297-0.16536-0.36174-0.24805-0.65629-0.24805h-0.13178v-0.40308h0.13178c0.29456 0 0.51332-0.08182 0.65629-0.24546 0.14297-0.16536 0.21446-0.3936 0.21446-0.68471v-0.38501c0-0.32384 0.0956-0.57102 0.2868-0.74156 0.19292-0.17226 0.44356-0.25838 0.75189-0.25838h0.38757v0.35657h-0.29456c-0.23427 0-0.4048 0.05426-0.5116 0.16278-0.10508 0.10852-0.15761 0.28336-0.15761 0.52452v0.45217c0 0.23943-0.06632 0.44097-0.19896 0.60461-0.13264 0.16192-0.31695 0.29025-0.55294 0.38499v0.06201c0.23599 0.09474 0.4203 0.22393 0.55294 0.38757 0.13264 0.16192 0.19896 0.3626 0.19896 0.60203v0.45217c0 0.24116 0.05254 0.416 0.15761 0.52452 0.1068 0.10852 0.27733 0.16278 0.5116 0.16278l5.6082-0.01828z" fill="#2ad4ff" stroke-width=".26458"/>
    </g>
    <path d="m93.641 153.88h-0.13177c-0.29456 0-0.51332 0.0827-0.6563 0.24805-0.14297 0.16364-0.21445 0.39102-0.21445 0.68213v0.38499c0 0.32384-0.0965 0.57102-0.28939 0.74156-0.1912 0.17225-0.44097 0.25838-0.74931 0.25838h-0.38757v-0.35657h0.29456c0.23427 0 0.40394-0.0543 0.50901-0.16278 0.10679-0.10852 0.16019-0.28336 0.16019-0.52452v-0.45217c0-0.23943 0.0663-0.44011 0.19896-0.60203 0.13263-0.16364 0.31695-0.29283 0.55294-0.38757v-0.062c-0.23599-0.0947-0.42031-0.22307-0.55294-0.38499-0.13264-0.16364-0.19896-0.36518-0.19896-0.60461v-0.45217c0-0.24116-0.0534-0.416-0.16019-0.52452-0.10507-0.10852-0.27475-0.16278-0.50901-0.16278l-1.425 3e-3 -0.10858-0.37759 1.6266 0.0184c0.30832 3e-3 0.55811 0.0861 0.74931 0.25838 0.19292 0.17054 0.28939 0.41772 0.28939 0.74156v0.38499c0 0.29111 0.0715 0.51935 0.21445 0.68471 0.14298 0.16365 0.36174 0.24547 0.6563 0.24547h0.13177z" fill="#2ad4ff"/>
    <g>
     <text x="85.873184" y="154.62601" fill="#535d6c" font-family="sans-serif" font-size="3.5278px" letter-spacing="0px" stroke-width=".070004" word-spacing="0px" style="line-height:1.25" xml:space="preserve"><tspan x="85.873184" y="154.62601" fill="#535d6c" stroke-width=".070004">Up</tspan></text>
     <g fill="#535d6c" stroke-width=".26458" aria-label="DevUp">
      <path d="m109.74 138.48q0 0.34968-0.15331 0.6339-0.15158 0.28422-0.4048 0.44097-0.1757 0.10852-0.39274 0.15675-0.21532 0.0482-0.56844 0.0482h-0.64768v-2.5649h0.64079q0.37551 0 0.596 0.0551 0.22221 0.0534 0.37552 0.14814 0.26182 0.16364 0.40824 0.4358 0.14642 0.27217 0.14642 0.64596zm-0.35657-5e-3q0-0.30145-0.10508-0.50815-0.10507-0.20671-0.3135-0.32556-0.15158-0.0861-0.32212-0.11886-0.17053-0.0345-0.40824-0.0345h-0.32039v1.9792h0.32039q0.24632 0 0.42891-0.0362 0.18432-0.0362 0.33762-0.13435 0.19121-0.12231 0.28595-0.32212 0.0965-0.19982 0.0965-0.49954z"/>
      <path d="m111.88 138.83h-1.4177q0 0.17742 0.0534 0.31006 0.0534 0.13091 0.14642 0.21531 0.0896 0.0827 0.21187 0.12403 0.12403 0.0413 0.27217 0.0413 0.19637 0 0.39446-0.0775 0.19981-0.0792 0.28422-0.15502h0.0172v0.35312q-0.16364 0.0689-0.33417 0.11541-0.17053 0.0465-0.35829 0.0465-0.47887 0-0.74758-0.25838-0.26872-0.26011-0.26872-0.73726 0-0.47197 0.25666-0.7493 0.25838-0.27733 0.67868-0.27733 0.3893 0 0.59945 0.22737 0.21187 0.22738 0.21187 0.64596zm-0.31523-0.24805q-2e-3 -0.25494-0.12919-0.39446-0.12574-0.13953-0.38412-0.13953-0.26011 0-0.41514 0.15331-0.15331 0.1533-0.17398 0.38068z"/>
      <path d="m114.03 137.83-0.77859 1.9241h-0.32557l-0.77342-1.9241h0.3514l0.596 1.5313 0.59084-1.5313z"/>
      <path d="m116.41 138.73q0 0.27905-0.062 0.48748-0.0603 0.2067-0.19982 0.34451-0.13263 0.13091-0.31006 0.1912-0.17742 0.0603-0.41341 0.0603-0.24116 0-0.4203-0.0637-0.17915-0.0637-0.30145-0.18776-0.13952-0.14125-0.20153-0.34107-0.0603-0.19981-0.0603-0.49092v-1.5348h0.34106v1.552q0 0.20843 0.0276 0.32901 0.0293 0.12058 0.0965 0.21876 0.0758 0.11197 0.20499 0.16881 0.13091 0.0568 0.3135 0.0568 0.18431 0 0.31351-0.0551 0.12919-0.0568 0.2067-0.17054 0.0672-0.0982 0.0947-0.22393 0.0293-0.12747 0.0293-0.31522v-1.5606h0.34107z"/>
      <path d="m118.73 138.77q0 0.23427-0.0672 0.42892-0.0672 0.19292-0.18948 0.32728-0.11369 0.12747-0.26872 0.1981-0.1533 0.0689-0.32556 0.0689-0.14986 0-0.27216-0.0327-0.12058-0.0327-0.24633-0.10163v0.80615h-0.32383v-2.6338h0.32383v0.20153q0.1292-0.10852 0.28939-0.18086 0.16192-0.0741 0.34451-0.0741 0.34796 0 0.54088 0.26355 0.19465 0.26182 0.19465 0.72863zm-0.33417 9e-3q0-0.34796-0.11886-0.52021-0.11886-0.17226-0.36518-0.17226-0.13953 0-0.28078 0.0603-0.14124 0.0603-0.27044 0.15848v1.0904q0.13781 0.062 0.23599 0.0844 0.0999 0.0224 0.22566 0.0224 0.27044 0 0.42202-0.18259 0.15159-0.18259 0.15159-0.54088z"/>
     </g>
     <g transform="translate(53.217 57.03)" fill="#5868f0" aria-label="{">
      <path d="m59.667 84.137-5.7012-0.0031c-0.30834-1.68e-4 -0.55897-0.08613-0.75189-0.25838-0.1912-0.17053-0.2868-0.41772-0.2868-0.74156v-0.38499c0-0.29111-0.07149-0.51849-0.21446-0.68213-0.14297-0.16536-0.36174-0.24805-0.65629-0.24805h-0.13178v-0.40308h0.13178c0.29456 0 0.51332-0.08182 0.65629-0.24546 0.14297-0.16536 0.21446-0.3936 0.21446-0.68471v-0.38501c0-0.32384 0.0956-0.57102 0.2868-0.74156 0.19292-0.17226 0.44356-0.25838 0.75189-0.25838h0.38757v0.35657h-0.29456c-0.23427 0-0.4048 0.05426-0.5116 0.16278-0.10508 0.10852-0.15761 0.28336-0.15761 0.52452v0.45217c0 0.23943-0.06632 0.44097-0.19896 0.60461-0.13264 0.16192-0.31695 0.29025-0.55294 0.38499v0.06201c0.23599 0.09474 0.4203 0.22393 0.55294 0.38757 0.13264 0.16192 0.19896 0.3626 0.19896 0.60203v0.45217c0 0.24116 0.05254 0.416 0.15761 0.52452 0.1068 0.10852 0.27733 0.16278 0.5116 0.16278l5.6082-0.01828z" fill="#5868f0" stroke-width=".26458"/>
     </g>
    </g>
    <path d="m120.97 138.85h-0.13177c-0.29456 0-0.51332 0.0827-0.6563 0.24805-0.14297 0.16364-0.21445 0.39102-0.21445 0.68213v0.38499c0 0.32384-0.0965 0.57102-0.28939 0.74156-0.1912 0.17224-0.44097 0.25838-0.74931 0.25838h-0.38757v-0.35657h0.29455c0.23427 0 0.40394-0.0543 0.50901-0.16278 0.1068-0.10852 0.1602-0.28336 0.1602-0.52452v-0.45217c0-0.23944 0.0663-0.44011 0.19896-0.60203 0.13263-0.16364 0.31695-0.29283 0.55294-0.38757v-0.062c-0.23599-0.0947-0.42031-0.22307-0.55294-0.38499-0.13264-0.16364-0.19896-0.36518-0.19896-0.60461v-0.45217c0-0.24116-0.0534-0.416-0.1602-0.52452-0.10507-0.10852-0.27474-0.16278-0.50901-0.16278l-5.9517 2e-3v-0.37022l6.0448 0.0113c0.30834 5.8e-4 0.55811 0.0861 0.74931 0.25838 0.19292 0.17054 0.28939 0.41772 0.28939 0.74156v0.38499c0 0.29111 0.0715 0.51935 0.21445 0.68471 0.14298 0.16365 0.36174 0.24547 0.6563 0.24547h0.13177z" fill="#5868f0"/>
   </g>
  </g>
 </g>
</svg>
